# xmcd CD database file
#
# Track frame offsets:
#	150
#	16341
#	31966
#	47960
#	66432
#	85340
#	98759
#	112157
#	127063
#	140258
#	157289
#	171944
#	188074
#	205185
#	220770
#	236814
#	253572
#	267469
#	277782
#	292667
#
# Disc length: 4136 seconds
#
# Revision: 0
# Processed by: cddbd v1.5.2PL0 Copyright (c) Steve Scherf et al.
# Submitted via: CDex 1.51
#
DISCID=2d102614
DTITLE=Diversos - Boteco Mineiro
DYEAR=2008
DGENRE=Country
TTITLE0=quem bebe vive menos - vitor hugo
TTITLE1=caso por acaso - cesar menotti e fabiano
TTITLE2=magia e misterio - don e juan
TTITLE3=fada - vitor e leo
TTITLE4=nao preciso de voce - eduardo costa
TTITLE5=robinhood - vitor hugo
TTITLE6=saudade de minas - cesar menotti e fabiano
TTITLE7=mil razoes para chorar - don e juan
TTITLE8=sinto falta de voce - vitor e leo
TTITLE9=que sofrimento e esse - eduardo costa
TTITLE10=minas gerias - vitor hugo
TTITLE11=foi tudo engano - cesar menotti e fabiano
TTITLE12=a vida que eu pedi a deus - don e juan
TTITLE13=amigo apaixonado - vitor e leo
TTITLE14=na saidera - eduardo costa
TTITLE15=nossa historia - vitor hugo
TTITLE16=www.voltapramim - cesar menotti e fabiano
TTITLE17=deixa eu te amar - don e juan
TTITLE18=jogo da vida - vitor e leo
TTITLE19=linda demais - eduardo costa
EXTD=YEAR: 2008
EXTT0=
EXTT1=
EXTT2=
EXTT3=
EXTT4=
EXTT5=
EXTT6=
EXTT7=
EXTT8=
EXTT9=
EXTT10=
EXTT11=
EXTT12=
EXTT13=
EXTT14=
EXTT15=
EXTT16=
EXTT17=
EXTT18=
EXTT19=
PLAYORDER=
